<svg width="170" height="56" viewBox="0 0 170 56" fill="none" xmlns="http://www.w3.org/2000/svg">
<path d="M28 28C12.5378 28 0 15.4622 0 -1.90735e-06H28V28Z" fill="#EEA02B"/>
<path d="M56 28C56 12.5378 43.4622 -1.90735e-06 28 -1.90735e-06V28H56Z" fill="#EEA02B"/>
<path d="M28 56C12.5378 56 0 43.4622 0 28H28V56Z" fill="#FFD9A0"/>
<path d="M56 56C56 40.5378 43.4622 28 28 28V56H56Z" fill="#FFD9A0"/>
<path d="M68.8523 22.5881V19.5455H83.1875V22.5881H77.8438V37H74.196V22.5881H68.8523ZM89.4964 37.2557C88.1726 37.2557 87.0277 36.9744 86.0618 36.4119C85.1016 35.8437 84.3601 35.054 83.8374 34.0426C83.3146 33.0256 83.0533 31.8466 83.0533 30.5057C83.0533 29.1534 83.3146 27.9716 83.8374 26.9602C84.3601 25.9432 85.1016 25.1534 86.0618 24.5909C87.0277 24.0227 88.1726 23.7386 89.4964 23.7386C90.8203 23.7386 91.9624 24.0227 92.9226 24.5909C93.8885 25.1534 94.6328 25.9432 95.1555 26.9602C95.6783 27.9716 95.9396 29.1534 95.9396 30.5057C95.9396 31.8466 95.6783 33.0256 95.1555 34.0426C94.6328 35.054 93.8885 35.8437 92.9226 36.4119C91.9624 36.9744 90.8203 37.2557 89.4964 37.2557ZM89.5135 34.4432C90.1158 34.4432 90.6186 34.2727 91.022 33.9318C91.4254 33.5852 91.7294 33.1136 91.9339 32.517C92.1442 31.9205 92.2493 31.2415 92.2493 30.4801C92.2493 29.7188 92.1442 29.0398 91.9339 28.4432C91.7294 27.8466 91.4254 27.375 91.022 27.0284C90.6186 26.6818 90.1158 26.5085 89.5135 26.5085C88.9055 26.5085 88.3942 26.6818 87.9794 27.0284C87.5703 27.375 87.2607 27.8466 87.0504 28.4432C86.8459 29.0398 86.7436 29.7188 86.7436 30.4801C86.7436 31.2415 86.8459 31.9205 87.0504 32.517C87.2607 33.1136 87.5703 33.5852 87.9794 33.9318C88.3942 34.2727 88.9055 34.4432 89.5135 34.4432ZM103.124 37.2131C102.13 37.2131 101.229 36.9574 100.423 36.446C99.6214 35.929 98.9851 35.1705 98.5135 34.1705C98.0476 33.1648 97.8146 31.9318 97.8146 30.4716C97.8146 28.9716 98.0561 27.7244 98.5391 26.7301C99.022 25.7301 99.6641 24.983 100.465 24.4886C101.272 23.9886 102.156 23.7386 103.116 23.7386C103.849 23.7386 104.46 23.8636 104.948 24.1136C105.442 24.358 105.84 24.6648 106.141 25.0341C106.448 25.3977 106.681 25.7557 106.84 26.108H106.951V19.5455H110.573V37H106.994V34.9034H106.84C106.67 35.267 106.428 35.6278 106.116 35.9858C105.809 36.3381 105.408 36.6307 104.914 36.8636C104.425 37.0966 103.829 37.2131 103.124 37.2131ZM104.275 34.3239C104.86 34.3239 105.354 34.1648 105.758 33.8466C106.167 33.5227 106.479 33.071 106.695 32.4915C106.917 31.9119 107.028 31.233 107.028 30.4545C107.028 29.6761 106.92 29 106.704 28.4261C106.488 27.8523 106.175 27.4091 105.766 27.0966C105.357 26.7841 104.86 26.6278 104.275 26.6278C103.678 26.6278 103.175 26.7898 102.766 27.1136C102.357 27.4375 102.048 27.8864 101.837 28.4602C101.627 29.0341 101.522 29.6989 101.522 30.4545C101.522 31.2159 101.627 31.8892 101.837 32.4744C102.053 33.054 102.363 33.5085 102.766 33.8381C103.175 34.1619 103.678 34.3239 104.275 34.3239ZM119.473 37.2557C118.149 37.2557 117.004 36.9744 116.038 36.4119C115.078 35.8437 114.337 35.054 113.814 34.0426C113.291 33.0256 113.03 31.8466 113.03 30.5057C113.03 29.1534 113.291 27.9716 113.814 26.9602C114.337 25.9432 115.078 25.1534 116.038 24.5909C117.004 24.0227 118.149 23.7386 119.473 23.7386C120.797 23.7386 121.939 24.0227 122.899 24.5909C123.865 25.1534 124.609 25.9432 125.132 26.9602C125.655 27.9716 125.916 29.1534 125.916 30.5057C125.916 31.8466 125.655 33.0256 125.132 34.0426C124.609 35.054 123.865 35.8437 122.899 36.4119C121.939 36.9744 120.797 37.2557 119.473 37.2557ZM119.49 34.4432C120.092 34.4432 120.595 34.2727 120.999 33.9318C121.402 33.5852 121.706 33.1136 121.911 32.517C122.121 31.9205 122.226 31.2415 122.226 30.4801C122.226 29.7188 122.121 29.0398 121.911 28.4432C121.706 27.8466 121.402 27.375 120.999 27.0284C120.595 26.6818 120.092 26.5085 119.49 26.5085C118.882 26.5085 118.371 26.6818 117.956 27.0284C117.547 27.375 117.237 27.8466 117.027 28.4432C116.822 29.0398 116.72 29.7188 116.72 30.4801C116.72 31.2415 116.822 31.9205 117.027 32.517C117.237 33.1136 117.547 33.5852 117.956 33.9318C118.371 34.2727 118.882 34.4432 119.49 34.4432ZM128.345 37V19.5455H132.036V33.9574H139.518V37H128.345ZM141.894 37V23.9091H145.525V37H141.894ZM143.718 22.2216C143.178 22.2216 142.715 22.0426 142.329 21.6847C141.948 21.321 141.758 20.8864 141.758 20.3807C141.758 19.8807 141.948 19.4517 142.329 19.0938C142.715 18.7301 143.178 18.5483 143.718 18.5483C144.258 18.5483 144.718 18.7301 145.099 19.0938C145.485 19.4517 145.678 19.8807 145.678 20.3807C145.678 20.8864 145.485 21.321 145.099 21.6847C144.718 22.0426 144.258 22.2216 143.718 22.2216ZM159.325 27.642L156.001 27.8466C155.945 27.5625 155.822 27.3068 155.635 27.0795C155.447 26.8466 155.2 26.6619 154.893 26.5256C154.592 26.3835 154.232 26.3125 153.811 26.3125C153.249 26.3125 152.774 26.4318 152.388 26.6705C152.001 26.9034 151.808 27.2159 151.808 27.608C151.808 27.9205 151.933 28.1847 152.183 28.4006C152.433 28.6165 152.862 28.7898 153.47 28.9205L155.839 29.3977C157.112 29.6591 158.061 30.0795 158.686 30.6591C159.311 31.2386 159.624 32 159.624 32.9432C159.624 33.8011 159.371 34.554 158.865 35.2017C158.365 35.8494 157.678 36.3551 156.803 36.7188C155.933 37.0767 154.93 37.2557 153.794 37.2557C152.061 37.2557 150.68 36.8949 149.652 36.1733C148.629 35.446 148.03 34.4574 147.854 33.2074L151.425 33.0199C151.533 33.5483 151.794 33.9517 152.209 34.2301C152.624 34.5028 153.155 34.6392 153.803 34.6392C154.439 34.6392 154.95 34.517 155.337 34.2727C155.729 34.0227 155.928 33.7017 155.933 33.3097C155.928 32.9801 155.788 32.7102 155.516 32.5C155.243 32.2841 154.822 32.1193 154.254 32.0057L151.987 31.554C150.709 31.2983 149.757 30.8551 149.132 30.2244C148.513 29.5937 148.203 28.7898 148.203 27.8125C148.203 26.9716 148.43 26.2472 148.885 25.6392C149.345 25.0312 149.99 24.5625 150.82 24.233C151.655 23.9034 152.632 23.7386 153.751 23.7386C155.405 23.7386 156.706 24.0881 157.655 24.7869C158.609 25.4858 159.166 26.4375 159.325 27.642ZM168.873 23.9091V26.6364H160.989V23.9091H168.873ZM162.779 20.7727H166.41V32.9773C166.41 33.3125 166.461 33.5739 166.563 33.7614C166.665 33.9432 166.808 34.071 166.989 34.1449C167.177 34.2187 167.393 34.2557 167.637 34.2557C167.808 34.2557 167.978 34.2415 168.148 34.2131C168.319 34.179 168.45 34.1534 168.54 34.1364L169.112 36.8381C168.93 36.8949 168.674 36.9602 168.344 37.0341C168.015 37.1136 167.614 37.1619 167.143 37.179C166.268 37.2131 165.501 37.0966 164.842 36.8295C164.188 36.5625 163.68 36.1477 163.316 35.5852C162.952 35.0227 162.773 34.3125 162.779 33.4545V20.7727Z" fill="#EEA02B"/>
</svg>
